<svg width="27" height="24" viewBox="0 0 27 24" fill="none" xmlns="http://www.w3.org/2000/svg">
<path d="M12.8557 0L26.5 4L13 7L0 3.5L12.8557 0Z" fill="#D9D9D9"/>
<ellipse cx="11.5" cy="3" rx="2.5" ry="1" fill="#2F54EB"/>
<rect x="9" y="1" width="5" height="2" fill="#2F54EB"/>
<ellipse cx="11.5" cy="1" rx="2.5" ry="1" fill="#8C8C8C"/>
<ellipse cx="8.5" cy="4" rx="2.5" ry="1" fill="#2F54EB"/>
<rect x="6" y="2" width="5" height="2" fill="#2F54EB"/>
<ellipse cx="8.5" cy="2" rx="2.5" ry="1" fill="#8C8C8C"/>
<ellipse cx="5.5" cy="5" rx="2.5" ry="1" fill="#2F54EB"/>
<rect x="3" y="3" width="5" height="2" fill="#2F54EB"/>
<ellipse cx="5.5" cy="3" rx="2.5" ry="1" fill="#8C8C8C"/>
<ellipse cx="15.5" cy="4" rx="2.5" ry="1" fill="#2F54EB"/>
<rect x="13" y="2" width="5" height="2" fill="#2F54EB"/>
<ellipse cx="15.5" cy="2" rx="2.5" ry="1" fill="#8C8C8C"/>
<ellipse cx="12.5" cy="5" rx="2.5" ry="1" fill="#2F54EB"/>
<rect x="10" y="3" width="5" height="2" fill="#2F54EB"/>
<ellipse cx="12.5" cy="3" rx="2.5" ry="1" fill="#8C8C8C"/>
<ellipse cx="9.5" cy="6" rx="2.5" ry="1" fill="#2F54EB"/>
<rect x="7" y="4" width="5" height="2" fill="#2F54EB"/>
<ellipse cx="9.5" cy="4" rx="2.5" ry="1" fill="#8C8C8C"/>
<ellipse cx="19.5" cy="5" rx="2.5" ry="1" fill="#2F54EB"/>
<rect x="17" y="3" width="5" height="2" fill="#2F54EB"/>
<ellipse cx="19.5" cy="3" rx="2.5" ry="1" fill="#8C8C8C"/>
<ellipse cx="16.5" cy="6" rx="2.5" ry="1" fill="#2F54EB"/>
<rect x="14" y="4" width="5" height="2" fill="#2F54EB"/>
<ellipse cx="16.5" cy="4" rx="2.5" ry="1" fill="#8C8C8C"/>
<ellipse cx="13.5" cy="7" rx="2.5" ry="1" fill="#2F54EB"/>
<rect x="11" y="5" width="5" height="2" fill="#2F54EB"/>
<ellipse cx="13.5" cy="5" rx="2.5" ry="1" fill="#8C8C8C"/>
<ellipse cx="23" cy="3.02502" rx="2" ry="0.375" fill="#E5EFFF"/>
<rect x="21" y="3" width="4" height="5" fill="#E5EFFF"/>
<path d="M21 3.95001C21 3.95001 21.872 4.25 23 4.25C24.128 4.25 25 3.95001 25 3.95001V6.95001L23 7.25L21 6.95001V3.95001Z" fill="#69A0FF"/>
<ellipse cx="23" cy="2.25" rx="1" ry="0.25" fill="#69A0FF"/>
<rect x="22" y="2.5" width="2" height="0.38463" fill="#E5EFFF"/>
<rect x="22.005" y="2.505" width="1.99" height="0.37463" stroke="#A5C8FF" stroke-opacity="0.5" stroke-width="0.01"/>
<ellipse cx="23" cy="2.88461" rx="1" ry="0.115389" fill="#E5EFFF"/>
<rect x="22" y="2.25" width="2" height="0.307704" fill="#69A0FF"/>
<ellipse cx="23" cy="2.5577" rx="1" ry="0.0923112" fill="#69A0FF"/>
<ellipse cx="20" cy="4.02502" rx="2" ry="0.375" fill="#E5EFFF"/>
<rect x="18" y="4" width="4" height="5" fill="#E5EFFF"/>
<path d="M18 4.95001C18 4.95001 18.872 5.25 20 5.25C21.128 5.25 22 4.95001 22 4.95001V7.95001L20 8.25L18 7.95001V4.95001Z" fill="#69A0FF"/>
<ellipse cx="20" cy="3.25" rx="1" ry="0.25" fill="#69A0FF"/>
<rect x="19" y="3.5" width="2" height="0.38463" fill="#E5EFFF"/>
<rect x="19.005" y="3.505" width="1.99" height="0.37463" stroke="#A5C8FF" stroke-opacity="0.5" stroke-width="0.01"/>
<ellipse cx="20" cy="3.88461" rx="1" ry="0.115389" fill="#E5EFFF"/>
<rect x="19" y="3.25" width="2" height="0.307704" fill="#69A0FF"/>
<ellipse cx="20" cy="3.5577" rx="1" ry="0.0923112" fill="#69A0FF"/>
<ellipse cx="17" cy="5.02502" rx="2" ry="0.375" fill="#E5EFFF"/>
<rect x="15" y="5" width="4" height="5" fill="#E5EFFF"/>
<path d="M15 5.95001C15 5.95001 15.872 6.25 17 6.25C18.128 6.25 19 5.95001 19 5.95001V8.95001L17 9.25L15 8.95001V5.95001Z" fill="#69A0FF"/>
<ellipse cx="17" cy="4.25" rx="1" ry="0.25" fill="#69A0FF"/>
<rect x="16" y="4.5" width="2" height="0.38463" fill="#E5EFFF"/>
<rect x="16.005" y="4.505" width="1.99" height="0.37463" stroke="#A5C8FF" stroke-opacity="0.5" stroke-width="0.01"/>
<ellipse cx="17" cy="4.88461" rx="1" ry="0.115389" fill="#E5EFFF"/>
<rect x="16" y="4.25" width="2" height="0.307704" fill="#69A0FF"/>
<ellipse cx="17" cy="4.5577" rx="1" ry="0.0923112" fill="#69A0FF"/>
<ellipse cx="14" cy="6.02502" rx="2" ry="0.375" fill="#E5EFFF"/>
<rect x="12" y="6" width="4" height="5" fill="#E5EFFF"/>
<path d="M12 6.95001C12 6.95001 12.872 7.25 14 7.25C15.128 7.25 16 6.95001 16 6.95001V9.95001L14 10.25L12 9.95001V6.95001Z" fill="#69A0FF"/>
<ellipse cx="14" cy="5.25" rx="1" ry="0.25" fill="#69A0FF"/>
<rect x="13" y="5.5" width="2" height="0.38463" fill="#E5EFFF"/>
<rect x="13.005" y="5.505" width="1.99" height="0.37463" stroke="#A5C8FF" stroke-opacity="0.5" stroke-width="0.01"/>
<ellipse cx="14" cy="5.88461" rx="1" ry="0.115389" fill="#E5EFFF"/>
<rect x="13" y="5.25" width="2" height="0.307704" fill="#69A0FF"/>
<ellipse cx="14" cy="5.5577" rx="1" ry="0.0923112" fill="#69A0FF"/>
<path d="M0 3.5L13 7V24L0 20V3.5Z" fill="#FAFAFA"/>
<path d="M26.5 4L13 7V24L26.5215 19.3343L26.5 4Z" fill="#FAFAFA"/>
<line x1="13.05" y1="7" x2="13.05" y2="24" stroke="black" stroke-width="0.1"/>
</svg>
